<?xml version="1.0" encoding="utf-8"?>
<!-- Generator: Adobe Illustrator 21.1.0, SVG Export Plug-In . SVG Version: 6.00 Build 0)  -->
<svg version="1.1" id="Layer_1" xmlns="http://www.w3.org/2000/svg" xmlns:xlink="http://www.w3.org/1999/xlink" x="0px" y="0px"
	 viewBox="0 0 43 43.3" style="enable-background:new 0 0 43 43.3;" xml:space="preserve">
<style type="text/css">
	.st0{fill:#F5C763;}
	.st1{fill:#E48963;}
	.st2{fill:#59BBC9;}
	.st3{fill:#3D70A2;}
</style>
<g>
	<path class="st0" d="M38.1,4.5c0.7,0.7,0.6,3.4-1.4,7.5c-1.9,3.8-4.8,8.1-8.4,11.9c-1.4-0.4-2.9-0.1-4,1c-1.6,1.6-1.6,4.1,0,5.7
		c1.6,1.6,4.1,1.6,5.7,0c1.1-1.1,1.4-2.7,1-4c0.5-0.6,1-1.1,1.5-1.7c0,0.1,0,0,0,0c0.4-0.4,0.7-0.8,1-1.2c0,0,0.1,0.1,0,0
		c2.7-3.3,5-6.8,6.6-10c2.6-5.5,2.8-9.6,0.6-11.8c-3.2-3.2-9.4,0.4-17.1,6.6c0.4,0.4,0.6,0.6,1,1C31.8,4,36.8,3.2,38.1,4.5z"/>
	<path class="st1" d="M34.5,24.5c-0.4,0.4-0.7,0.8-1.1,1.3c3.9,4.8,5.7,9,5.7,11.5c0,0.8-0.1,1.3-0.5,1.7c-1.7,1.7-8.7-0.7-16.1-8.1
		l-2.7-2.7c0.1-1.2-0.2-2.4-1.2-3.4c-1.6-1.6-4.1-1.6-5.7,0c-1.6,1.6-1.6,4.1,0,5.7c1.2,1.2,3.1,1.5,4.6,0.8l1.8,1.7c-0.1,0,0,0,0,0
		c0.3,0.3,0.7,0.7,1.2,1.2c0,0-0.1,0,0,0c5.2,5,11.7,9,16.5,9c1.7,0,3.1-0.5,4.2-1.6c1.1-1,1.7-2.5,1.7-4.3
		C42.9,33.4,39.2,29.3,34.5,24.5z"/>
	<path class="st2" d="M5.5,38.2c-1-0.9-0.7-3.5,0.6-6.6c1.7-3.8,4.8-8.1,8.7-12.1l0.1-0.1c1.3,0.4,2.8,0,3.8-1.1
		c1.6-1.6,1.6-4.1,0-5.7c-1.6-1.6-4.1-1.6-5.7,0c-1.2,1.2-1.4,2.8-0.9,4.2c-0.6,0.6-1.1,1.1-1.6,1.7l0,0c-0.3,0.4-0.6,0.7-1,1.2l0,0
		l0,0l0,0c-3,3.5-5.3,7.1-6.8,10.4c-2.1,4.8-2,8.6,0.1,10.9c1.1,1.1,2.7,1.7,4.5,1.7c3.3,0,7.6-3.7,12.2-7.5
		c-0.5-0.5-0.9-0.9-1.2-1.2C12,38.5,7,39.7,5.5,38.2z"/>
	<path class="st3" d="M9.7,17.5c-4-4.8-5.8-9.1-5.8-11.7C3.8,5,4,4.5,4.3,4.2c1.7-1.7,8.7,0.7,16,8.1l2.9,3c-0.1,1.1,0.4,2.2,1.2,3
		c1.6,1.6,4.1,1.6,5.7,0c1.6-1.6,1.6-4.1,0-5.7c-1.3-1.3-3.2-1.5-4.8-0.6l-1.7-1.7L23,9.7c-0.1-0.1-0.4-0.4-0.5-0.5
		C15.5,2.3,6-2.7,1.7,1.6C0.6,2.6,0,4.1,0,5.9c0,3.8,3.9,8.2,8.5,12.9C8.9,18.3,9.3,17.9,9.7,17.5z"/>
</g>
</svg>
