<?xml version="1.0" encoding="utf-8"?>
<!-- Generator: Adobe Illustrator 21.1.0, SVG Export Plug-In . SVG Version: 6.00 Build 0)  -->
<svg version="1.1" id="Layer_1" xmlns="http://www.w3.org/2000/svg" xmlns:xlink="http://www.w3.org/1999/xlink" x="0px" y="0px"
	 viewBox="0 0 499.3 322.2" style="enable-background:new 0 0 499.3 322.2;" xml:space="preserve">
<style type="text/css">
	.st0{fill:#F2F5F7;}
	.st1{fill:#4BB4C5;}
	.st2{clip-path:url(#SVGID_2_);}
	.st3{fill:#222D33;}
	.st4{fill:#EBB64F;}
	.st5{fill:#282622;}
	.st6{fill:#171614;}
	.st7{fill:#F5C14F;}
	.st8{opacity:0.78;}
	.st9{fill:#FFD897;}
	.st10{fill:#E38054;}
	.st11{fill:#C56347;}
	.st12{fill:#394049;}
	.st13{fill:#A6A198;}
	.st14{fill:#ED4723;}
	.st15{fill:#F0623C;}
	.st16{fill:#E4E4E3;}
	.st17{fill:#111719;}
	.st18{fill:#C56A4A;}
	.st19{fill:none;stroke:#6798BA;stroke-width:12;stroke-miterlimit:10;}
	.st20{fill:#F6A487;}
	.st21{fill:#F8F8F8;}
	.st22{fill:#CDCDCC;}
	.st23{fill:#FFFFFF;}
	.st24{fill:#3E72A3;}
	.st25{fill:#4BB5C6;}
	.st26{fill:#E28053;}
	.st27{fill:#F3BF4D;}
	.st28{fill:#42484C;}
	.st29{fill:#82898E;}
</style>
<g>
	<circle class="st0" cx="123.4" cy="262.2" r="55.5"/>
	<circle class="st0" cx="382.3" cy="123.8" r="84.6"/>
	<circle class="st1" cx="259.5" cy="179.8" r="142.4"/>
	<g>
		<g>
			<defs>
				<circle id="SVGID_1_" cx="259.5" cy="179.8" r="142.4"/>
			</defs>
			<clipPath id="SVGID_2_">
				<use xlink:href="#SVGID_1_"  style="overflow:visible;"/>
			</clipPath>
			<g class="st2">
				<path class="st3" d="M294.5,222.6h-69.8l-2.1,57.2V456H244v-73c0,0-0.9-32,4.4-61.4c6-22.8,11.2-22.6,11.3-22.6v0l0,0l0,0v0
					c0.1,0,5.3-0.2,11.3,22.6c0,0,0,0,0,0c5.3,29.4,4.4,61.3,4.4,61.3v73h21.5V279.8L294.5,222.6z"/>
			</g>
		</g>
		<g>
			<polygon class="st4" points="248.4,124.9 239.1,134.7 240.1,155.2 278.5,158.3 274,127.4 270.5,124.9 			"/>
		</g>
		<g>
			<g>
				<path class="st4" d="M259.4,170.7c-6.1,0-11.1-5-11.1-11.1l0-70c0-6.1,5-11.1,11.1-11.1c6.1,0,11.1,5,11.1,11.1l0,70
					C270.5,165.8,265.6,170.7,259.4,170.7z"/>
			</g>
		</g>
		<g>
			<ellipse class="st5" cx="259.5" cy="13.3" rx="18.4" ry="13.3"/>
		</g>
		<g>
			<ellipse class="st6" cx="259.5" cy="16.1" rx="18.4" ry="13.3"/>
		</g>
		<g>
			<path class="st5" d="M223.4,48.6c0,0,0,62.3,36.2,62.3c36.2,0,36.4-64.5,36.4-64.5L223.4,48.6z"/>
		</g>
		<g>
			<g>
				<path class="st7" d="M228.7,75.7h-0.2c-1.8,0-3.2-1.5-3.2-3.2v-2.9c0-1.8,1.5-3.2,3.2-3.2h0.2c1.8,0,3.2,1.5,3.2,3.2v2.9
					C231.9,74.2,230.5,75.7,228.7,75.7z"/>
			</g>
			<g>
				<path class="st7" d="M290.8,75.7h-0.2c-1.8,0-3.2-1.5-3.2-3.2v-2.9c0-1.8,1.5-3.2,3.2-3.2h0.2c1.8,0,3.2,1.5,3.2,3.2v2.9
					C294,74.2,292.5,75.7,290.8,75.7z"/>
			</g>
		</g>
		<g>
			<path class="st7" d="M286.9,94.1c0,11.9-22.1,21.6-27.3,21.6c-5.2,0-27.3-9.7-27.3-21.6l-3.8-49.6c0-11.9,9.7-21.6,21.6-21.6
				h19.2c11.9,0,21.6,9.7,21.6,21.6L286.9,94.1z"/>
		</g>
		<g class="st8">
			<path class="st9" d="M262,86.7c0,0.9-1.1-0.1-2.4-0.1s-2.4,1-2.4,0.1c0-0.9,1.1-1.6,2.4-1.6S262,85.8,262,86.7z"/>
		</g>
		<g>
			<g>
				<path class="st5" d="M296,45.1C296,25,279.7,6,259.6,6c-20.1,0-36.4,19-36.4,39.1s16.3,17,36.4,17C279.7,62.1,296,65.2,296,45.1
					z"/>
			</g>
		</g>
		<g>
			<path class="st5" d="M223.1,42.3"/>
		</g>
		<g>
			<g>
				<path class="st10" d="M259.6,97.7h-0.2H253c0,0.8,2.9,2.3,6.5,2.3c3.6,0,6.5-1.5,6.5-2.3H259.6z"/>
			</g>
			<g>
				<path class="st11" d="M263.6,97.1c-1.4-0.3-2.9-0.7-3.1-0.6c-0.1,0.1-0.5,0.7-1.1,0.7c-0.5,0-0.9-0.6-1.1-0.7
					c-0.2-0.1-1.7,0.2-3.1,0.6c-1.2,0.3-2.4,0.6-2.4,0.6h6.4h0.2h6.4C265.9,97.7,264.8,97.4,263.6,97.1z"/>
			</g>
		</g>
		<g>
			<circle class="st12" cx="242" cy="73.4" r="2.9"/>
		</g>
		<g>
			<circle class="st12" cx="277.2" cy="73.4" r="2.9"/>
		</g>
		<g>
			<path class="st5" d="M227.2,53.7c0,0-2,41.9,4.8,52.2V54.5L227.2,53.7z"/>
		</g>
		<g>
			<path class="st5" d="M292.1,53.7c0,0,2,41.9-4.8,52.2V54.5L292.1,53.7z"/>
		</g>
		<g>
			<g>
				<g>
					<path class="st13" d="M246.9,83.8h-8.5c-4.5,0-8.2-3.4-8.2-7.6v-12h0.9v12c0,3.7,3.2,6.7,7.2,6.7h8.5c4,0,7.2-3,7.2-6.7v-12
						h0.9v12C255.1,80.4,251.4,83.8,246.9,83.8z"/>
				</g>
			</g>
			<g>
				<g>
					<path class="st13" d="M280.7,83.8h-8.3c-4.4,0-8-3.4-8-7.6v-12h0.9v12c0,3.7,3.2,6.7,7.1,6.7h8.3c3.9,0,7.1-3,7.1-6.7v-12h0.9
						v12C288.7,80.4,285.1,83.8,280.7,83.8z"/>
				</g>
			</g>
			<g>
				<g>
					<g>
						<g>
							<g>
								<path class="st14" d="M254,66.3H230c-0.7,0-1.3-0.6-1.3-1.3v-0.1c0-0.7,0.6-1.3,1.3-1.3H254c0.7,0,1.3,0.6,1.3,1.3V65
									C255.3,65.7,254.7,66.3,254,66.3z"/>
							</g>
						</g>
						<g>
							<g>
								<path class="st14" d="M289.2,66.3h-23.9c-0.7,0-1.3-0.6-1.3-1.3v-0.1c0-0.7,0.6-1.3,1.3-1.3h23.9c0.7,0,1.3,0.6,1.3,1.3V65
									C290.5,65.7,289.9,66.3,289.2,66.3z"/>
							</g>
						</g>
					</g>
				</g>
			</g>
			<g>
				<g>
					<path class="st15" d="M265.1,66.9h-11c-0.5,0-1-0.4-1-1v-0.1c0-0.5,0.4-1,1-1h11c0.5,0,1,0.4,1,1V66
						C266.1,66.5,265.6,66.9,265.1,66.9z"/>
				</g>
			</g>
			<g>
				<ellipse class="st16" cx="230.7" cy="64.9" rx="1.2" ry="0.5"/>
			</g>
			<g>
				<ellipse class="st16" cx="288.1" cy="64.9" rx="1.2" ry="0.5"/>
			</g>
		</g>
		<g>
			<path class="st17" d="M243.7,153.5c0,0,15,12.2,30,0c15-12.2,0,108.8,0,108.8h-31.1L243.7,153.5z"/>
		</g>
		<g>
			<path class="st10" d="M212.8,266.9h35.6V147.5c0,0-4.1-2.7-3.7-10c0.4-7.2,3.7-12.6,3.7-12.6l-39.6,15.5L212.8,266.9z"/>
		</g>
		<g>
			<g>
				<path class="st10" d="M201.3,216.2v-64.1c0-7.1,5.7-12.8,12.8-12.8c7.1,0,12.8,5.7,12.8,12.8v64.1
					C226.9,223.3,201.3,223.3,201.3,216.2z"/>
			</g>
		</g>
		<g>
			<path class="st18" d="M222.6,155.6c0-0.2,0-0.4,0-0.7c0-0.2,0-0.4,0-0.7c0-0.4,0-0.9-0.1-1.3c-0.1-0.9-0.2-1.8-0.3-2.7
				c-0.3-1.8-0.7-3.5-1.4-5.2c-0.3-0.8-0.7-1.6-1.2-2.3c-0.5-0.7-1.1-1.4-1.7-2c-0.7-0.6-1.4-1-2.3-1.3c-0.4-0.1-0.8-0.3-1.3-0.3
				c-0.4-0.1-0.9-0.1-1.3-0.1l0,0c-0.1,0-0.2-0.1-0.2-0.2c0-0.1,0.1-0.2,0.2-0.2c0.5,0,0.9,0,1.4,0.1c0.5,0.1,0.9,0.2,1.4,0.3
				c0.9,0.3,1.8,0.7,2.5,1.3c0.8,0.6,1.4,1.3,2,2c0.6,0.8,1,1.6,1.4,2.4c0.8,1.7,1.3,3.5,1.7,5.3c0.2,0.9,0.3,1.8,0.4,2.8
				c0.1,0.5,0.1,0.9,0.1,1.4c0,0.2,0,0.5,0,0.7c0,0.2,0,0.5,0,0.7c0,0.4-0.3,0.8-0.8,0.8C222.9,156.4,222.6,156,222.6,155.6
				C222.6,155.6,222.6,155.6,222.6,155.6L222.6,155.6z"/>
		</g>
		<g>
			<rect x="223.3" y="153.6" class="st18" width="25" height="1.5"/>
		</g>
		<g>
			<path class="st19" d="M270.5,154.4"/>
		</g>
		<g>
			<g>
				<polygon class="st18" points="222.9,158.3 241,158.3 241,167.1 231.6,171.5 222.9,167.2 				"/>
			</g>
			<g>
				<polygon class="st20" points="222.5,154.7 241.4,154.7 241.4,158.9 231.6,163.3 222.5,159 				"/>
			</g>
			<g>
				<circle class="st18" cx="231.5" cy="160.8" r="1.5"/>
			</g>
			<g>
				<rect x="224.1" y="164.9" class="st18" width="1.5" height="102.1"/>
			</g>
			<g>
				<rect x="237.9" y="164.9" class="st18" width="1.5" height="102.1"/>
			</g>
		</g>
		<g>
			<g>
				<path class="st10" d="M292.2,215.9V152c0-7.1,5.7-12.8,12.8-12.8s12.8,5.7,12.8,12.8v63.9C317.9,223,292.2,223,292.2,215.9z"/>
			</g>
		</g>
		<g>
			<path class="st21" d="M231.4,220.4c1.5,1,4.2,2.8,5.8,4l22,15.6c1.7,1.2,3,3.8,3,5.9v54c0,2-1.5,2.9-3.2,1.9l-42.7-24.1
				c-1.8-1-3.1-3.5-3-5.5l3.1-53.9c0.1-2,1.8-3.2,3.7-2.6l5,1.6C227,218,229.8,219.3,231.4,220.4z"/>
		</g>
		<g>
			<path class="st22" d="M228.8,221.4c1,0.5,3.3,1.8,4.9,2.9l22.9,15.7c1.7,1.2,3.1,3.8,3.1,5.8v52.6c0,2-1.5,2.9-3.2,1.9
				l-43.7-24.8c-1.8-1-3.1-3.5-3-5.6l3-51.7c0.1-2,1.8-3.1,3.6-2.2l7.1,3.1C225.4,219.9,227.8,220.9,228.8,221.4z"/>
		</g>
		<g>
			<g>
				<path class="st7" d="M213,293.7c-6.2,0-11.3-5.7-11.3-12.8v-65.6l22.6,0.2v65.4C224.3,288,219.3,293.7,213,293.7z"/>
			</g>
		</g>
		<g>
			<g>
				<path class="st20" d="M226,224.3c-0.6,0-1.3-0.1-1.9-0.3c-11.5-3.7-19.6-0.3-19.6-0.3c-3.2,1.5-5-0.1-6.4-3.4
					c-1.4-3.3-2-7.2,1.2-8.7c0.3-0.2,3.5-1.5,8.5-2.2c6.5-0.9,13.4-0.2,20.1,1.9c3.4,1.1,3.5,4.8,2.4,8.3
					C229.5,222.5,228.7,224.3,226,224.3z"/>
			</g>
		</g>
		<g>
			<path class="st10" d="M306.1,266.9h-35.6V147.5c0,0,4.1-2.7,3.7-10c-0.4-7.2-3.7-12.6-3.7-12.6l39.6,15.5L306.1,266.9z"/>
		</g>
		<g>
			<polygon class="st18" points="276.5,158.3 294.7,158.3 294.7,167.1 285.3,171.5 276.5,167.2 			"/>
		</g>
		<g>
			<path class="st18" d="M293.1,155.6c0-0.3,0-0.5,0-0.7c0-0.2,0-0.5,0-0.7c0-0.5,0.1-0.9,0.1-1.4c0.1-0.9,0.3-1.8,0.4-2.8
				c0.4-1.8,0.9-3.6,1.7-5.3c0.4-0.9,0.9-1.7,1.4-2.4c0.6-0.8,1.2-1.5,2-2c0.8-0.6,1.6-1,2.5-1.3c0.5-0.1,0.9-0.2,1.4-0.3
				c0.5-0.1,0.9-0.1,1.4-0.1c0.1,0,0.2,0.1,0.2,0.2c0,0.1-0.1,0.2-0.2,0.2l0,0c-0.4,0-0.9,0.1-1.3,0.1c-0.4,0.1-0.9,0.2-1.3,0.3
				c-0.8,0.3-1.6,0.7-2.3,1.3c-0.7,0.6-1.2,1.2-1.7,2c-0.5,0.7-0.9,1.5-1.2,2.3c-0.7,1.6-1.1,3.4-1.4,5.2c-0.1,0.9-0.2,1.8-0.3,2.7
				c0,0.4-0.1,0.9-0.1,1.3c0,0.2,0,0.4,0,0.7c0,0.2,0,0.4,0,0.7l0,0c0,0.4-0.3,0.8-0.7,0.8C293.5,156.4,293.1,156.1,293.1,155.6
				C293.1,155.6,293.1,155.6,293.1,155.6z"/>
		</g>
		<g>
			<rect x="270.5" y="153.6" class="st18" width="23.4" height="1.5"/>
		</g>
		<g>
			<polygon class="st20" points="276.2,154.7 295,154.7 295,158.9 285.3,163.3 276.2,159 			"/>
		</g>
		<g>
			<circle class="st18" cx="285.2" cy="160.8" r="1.5"/>
		</g>
		<g>
			<circle class="st18" cx="273.3" cy="159.3" r="1.5"/>
		</g>
		<g>
			<circle class="st18" cx="273.3" cy="183.1" r="1.5"/>
		</g>
		<g>
			<circle class="st18" cx="273.3" cy="207" r="1.5"/>
		</g>
		<g>
			<circle class="st18" cx="273.3" cy="230.9" r="1.5"/>
		</g>
		<g>
			<circle class="st18" cx="273.3" cy="254.7" r="1.5"/>
		</g>
		<g>
			<rect x="277.8" y="164.9" class="st18" width="1.5" height="102.1"/>
		</g>
		<g>
			<rect x="291.4" y="164.9" class="st18" width="1.5" height="102.1"/>
		</g>
		<g>
			<line class="st18" x1="292.4" y1="164.9" x2="292.4" y2="266.9"/>
		</g>
		<g>
			<g>
				<path class="st7" d="M305.2,293.7c-6.2,0-11.3-5.7-11.3-12.8v-65.6l22.6,0.2v65.4C316.5,288,311.4,293.7,305.2,293.7z"/>
			</g>
		</g>
		<g>
			<g>
				<path class="st20" d="M317.1,224.3c-0.6,0-1.3-0.1-1.9-0.3c-11.5-3.7-19.6-0.3-19.6-0.3c-3.2,1.5-5-0.1-6.4-3.4
					c-1.4-3.3-2-7.2,1.2-8.7c0.3-0.2,3.5-1.5,8.5-2.2c6.5-0.9,13.4-0.2,20.1,1.9c3.4,1.1,3.5,4.8,2.4,8.3
					C320.6,222.5,319.8,224.3,317.1,224.3z"/>
			</g>
		</g>
		<g>
			<path class="st18" d="M248.4,124.9l-7.8,3.1l-3.1,23.9l10.9-4.3C248.4,147.5,242.3,138.3,248.4,124.9z"/>
		</g>
		<g>
			<path class="st18" d="M270.5,124.9l7.8,3.1l3.1,23.9l-10.9-4.3C270.5,147.5,276.5,138.3,270.5,124.9z"/>
		</g>
		<g>
			<ellipse class="st23" cx="234.6" cy="257.3" rx="3.3" ry="7.5"/>
		</g>
	</g>
	<g>
		<circle class="st24" cx="415.8" cy="231.8" r="83.4"/>
		<g>
			<path class="st23" d="M434.1,234.3h-5.7c-14.2,0-25.8-11.6-25.8-25.8v-2c0-14.2,11.6-25.8,25.8-25.8h5.7
				c14.2,0,25.8,11.6,25.8,25.8v2C460,222.7,448.4,234.3,434.1,234.3z"/>
			<path class="st23" d="M394.6,220.6h-1.2c-8.5,0-15.4-6.9-15.4-15.4V204c0-8.5,6.9-15.4,15.4-15.4h1.2c8.5,0,15.4,6.9,15.4,15.4
				v1.2C410,213.6,403,220.6,394.6,220.6z"/>
			<path class="st23" d="M459.4,234.3h-87.1c-6.9,0-12.5-5.6-12.5-12.5v-0.9c0-6.9,5.6-12.5,12.5-12.5h87.1
				c6.9,0,12.5,5.6,12.5,12.5v0.9C471.9,228.7,466.3,234.3,459.4,234.3z"/>
		</g>
		<g>
			<g>
				<g>
					<rect x="386.6" y="269.1" class="st25" width="54.7" height="2.9"/>
					<circle class="st26" cx="380.2" cy="270.6" r="11.5"/>
					<circle class="st26" cx="451.5" cy="270.6" r="11.5"/>
					<path class="st25" d="M427.8,225.4h-28.6c-1,0-1.9-0.8-1.9-1.9v-17.4c0-1,0.8-1.9,1.9-1.9h28.6c1,0,1.9,0.8,1.9,1.9v17.4
						C429.6,224.6,428.8,225.4,427.8,225.4z"/>
					<rect x="413.3" y="225.4" class="st25" width="2.9" height="33.7"/>
				</g>
				<circle class="st27" cx="414.2" cy="270.6" r="11.5"/>
			</g>
			<path class="st1" d="M426.7,227.9h-24.9c-2.5,0-4.4-2-4.4-4.4v-16.1c0-2.5,2-4.4,4.4-4.4h24.9c2.5,0,4.4,2,4.4,4.4v16.1
				C431.1,225.9,429.1,227.9,426.7,227.9z M401.8,205.8c-0.9,0-1.6,0.7-1.6,1.6v16.1c0,0.9,0.7,1.6,1.6,1.6h24.9
				c0.9,0,1.6-0.7,1.6-1.6v-16.1c0-0.9-0.7-1.6-1.6-1.6H401.8z"/>
		</g>
	</g>
	<g>
		<circle class="st26" cx="91.1" cy="147.8" r="91.1"/>
		
			<rect x="60.5" y="95.1" transform="matrix(0.8777 -0.4792 0.4792 0.8777 -37.4827 48.1091)" class="st28" width="29.9" height="4.7"/>
		
			<rect x="100.2" y="84.1" transform="matrix(0.4792 -0.8777 0.8777 0.4792 -33.5503 141.5744)" class="st28" width="4.7" height="29.9"/>
		<polygon class="st28" points="58.3,205.8 57.8,201.1 86.3,198 86.3,84.9 91,84.9 91,202.2 		"/>
		
			<rect x="102" y="186" transform="matrix(0.1066 -0.9943 0.9943 0.1066 -107.3853 284.0091)" class="st28" width="4.7" height="31.6"/>
		<rect x="86.3" y="178.1" class="st28" width="4.7" height="31.1"/>
		<path class="st23" d="M137.4,167.3H39.9c-2.1,0-3.8-1.7-3.8-3.8v-58.1c0-2.1,1.7-3.8,3.8-3.8h97.6c2.1,0,3.8,1.7,3.8,3.8v58.1
			C141.3,165.6,139.6,167.3,137.4,167.3z"/>
		<rect x="47.8" y="110.9" class="st25" width="30.2" height="26.4"/>
		<rect x="47.8" y="146.2" class="st27" width="30.2" height="13.2"/>
		<rect x="88.7" y="111.6" class="st29" width="38.9" height="4.7"/>
		<rect x="88.7" y="123.8" class="st29" width="31.4" height="4.7"/>
		<rect x="88.7" y="135.7" class="st29" width="42.8" height="4.7"/>
		<rect x="88.7" y="147.4" class="st29" width="38.9" height="4.7"/>
	</g>
</g>
</svg>
