<?xml version="1.0" encoding="utf-8"?>
<!-- Generator: Adobe Illustrator 21.1.0, SVG Export Plug-In . SVG Version: 6.00 Build 0)  -->
<svg version="1.1" id="Layer_1" xmlns="http://www.w3.org/2000/svg" xmlns:xlink="http://www.w3.org/1999/xlink" x="0px" y="0px"
	 viewBox="0 0 589 520" style="enable-background:new 0 0 589 520;" xml:space="preserve">
<style type="text/css">
	.st0{fill:#EAF0F4;}
	.st1{fill:#3D70A3;}
	.st2{clip-path:url(#SVGID_2_);}
	.st3{fill:#DBDBDA;}
	.st4{fill:#C1C3C1;}
	.st5{fill:#1D6AA5;}
	.st6{fill:#FFFFFF;}
	.st7{opacity:0.21;}
	.st8{fill:#31363A;}
	.st9{opacity:0.11;fill:#FFFFFF;}
	.st10{fill:#E48055;}
	.st11{fill:#4BB5C6;}
	.st12{fill:#3E72A3;}
	.st13{clip-path:url(#SVGID_4_);}
	.st14{fill:none;stroke:#FFC763;stroke-width:27;stroke-linecap:round;stroke-miterlimit:10;}
	.st15{fill:#EAB54E;}
	.st16{fill:#F3BF4D;}
	.st17{fill:#E28053;}
	.st18{fill:none;stroke:#E28053;stroke-width:14;stroke-linecap:round;stroke-miterlimit:10;}
	.st19{clip-path:url(#SVGID_4_);fill:#FFD796;}
	.st20{opacity:0.78;clip-path:url(#SVGID_4_);}
	.st21{fill:#FFD796;}
	.st22{fill:#373F47;}
	.st23{fill:#76664F;}
	.st24{fill:#695948;}
	.st25{opacity:0.36;}
	.st26{fill:#8ED3E7;}
	.st27{fill:#39404A;}
	.st28{fill:#1E2327;}
	.st29{fill:#282E33;}
	.st30{fill:#243135;}
	.st31{fill:#BBE4F4;}
	.st32{fill:#E7EDF2;}
	.st33{fill:#A1AFB7;}
	.st34{fill:#4BB4C5;}
	.st35{clip-path:url(#SVGID_6_);}
	.st36{fill:#222D33;}
	.st37{fill:#EBB64F;}
	.st38{fill:#282622;}
	.st39{fill:#171614;}
	.st40{fill:#F5C14F;}
	.st41{opacity:0.78;}
	.st42{fill:#FFD897;}
	.st43{fill:#E38054;}
	.st44{fill:#C56347;}
	.st45{fill:#394049;}
	.st46{fill:#A6A198;}
	.st47{fill:#ED4723;}
	.st48{fill:#F0623C;}
	.st49{fill:#E4E4E3;}
	.st50{fill:#111719;}
	.st51{fill:#C56A4A;}
	.st52{fill:none;stroke:#6798BA;stroke-width:12;stroke-miterlimit:10;}
	.st53{fill:#F6A487;}
	.st54{fill:#F8F8F8;}
	.st55{fill:#CDCDCC;}
</style>
<path class="st0" d="M441.1,154.2L383.3,212c-1.7,1.7-4.5,1.7-6.2,0l-57.8-57.8c-1.7-1.7-1.7-4.5,0-6.2l57.8-57.8
	c1.7-1.7,4.5-1.7,6.2,0l57.8,57.8C442.8,149.7,442.8,152.5,441.1,154.2z"/>
<path class="st0" d="M442.7,370.8l-57.8,57.8c-1.7,1.7-4.5,1.7-6.2,0l-57.8-57.8c-1.7-1.7-1.7-4.5,0-6.2l57.8-57.8
	c1.7-1.7,4.5-1.7,6.2,0l57.8,57.8C444.4,366.4,444.4,369.1,442.7,370.8z"/>
<path class="st0" d="M262.6,368.1l-45.3,45.3c-1.7,1.7-4.5,1.7-6.2,0l-45.3-45.3c-1.7-1.7-1.7-4.5,0-6.2l45.3-45.3
	c1.7-1.7,4.5-1.7,6.2,0l45.3,45.3C264.3,363.6,264.3,366.4,262.6,368.1z"/>
<circle class="st1" cx="301.6" cy="251.2" r="122.8"/>
<g>
	<defs>
		<path id="SVGID_1_" d="M316.8,374.6h-30.3c-59.2,0-107.7-48.4-107.7-107.7v-54.2c0-59.2,48.4-107.7,107.7-107.7h30.3
			c59.2,0,107.7,48.4,107.7,107.7V267C424.4,326.2,376,374.6,316.8,374.6z"/>
	</defs>
	<clipPath id="SVGID_2_">
		<use xlink:href="#SVGID_1_"  style="overflow:visible;"/>
	</clipPath>
	<g class="st2">
		<g>
			<g>
				<g>
					<path class="st3" d="M333.5,353.7L333.5,353.7v-22h-64.4v22c0,0,0,5.6-3.3,11c-3,4.9-23.5,9.6-38,9.6h73.7h73.7
						c-14.1,0-35.2-4.4-38.2-9.2C333.6,359.6,333.5,353.7,333.5,353.7z"/>
				</g>
				<g>
					<path class="st4" d="M369.2,379.5c-27.3,0-135.9,0-139.4,0c-4,0-3.8-3.3-3.8-3.3V373h149.4v2.9
						C375.3,375.9,375.3,379.5,369.2,379.5z"/>
				</g>
				<g>
					<rect x="269.2" y="331.7" class="st4" width="64.4" height="17.8"/>
				</g>
				<g>
					<g>
						<path d="M408.8,338.5h-215c-3.6,0-6.6-3-6.6-6.6V191.9c0-3.6,3-6.6,6.6-6.6h215c3.6,0,6.6,3,6.6,6.6V332
							C415.4,335.6,412.5,338.5,408.8,338.5z"/>
					</g>
					<g>
						<rect x="198.9" y="197.7" class="st5" width="204.9" height="128.4"/>
					</g>
				</g>
			</g>
			<g>
				<g>
					<path class="st6" d="M314.5,263.1c0,7.3-5.9,13.2-13.2,13.2s-13.2-5.9-13.2-13.2c0-3,1-5.8,2.7-8.1c2.4-3.1,6.2-2.4,10.5-2.4
						c4.6,0,8.6-0.5,11,3.1C313.6,257.9,314.5,260.4,314.5,263.1z"/>
				</g>
				<g>
					<path class="st6" d="M307.1,244.7c0,0-6.1-0.1-6.1,6.1C301,250.8,306.6,251.1,307.1,244.7z"/>
				</g>
			</g>
			<g class="st7">
				<path class="st6" d="M198.9,326.1c0,0,154.9-53.3,154.9-128.4h10.7c0,0,14.9,64.2-86.7,128.4H198.9z"/>
			</g>
			<g class="st7">
				<path class="st6" d="M225.2,326.1c0,0,154.9-53.3,154.9-128.4h10.7c0,0,14.9,64.2-86.7,128.4H225.2z"/>
			</g>
			<g>
				<path class="st6" d="M277.8,326.1"/>
			</g>
			<g>
				<path class="st6" d="M205.4,205.2h2.3v7.5h-2.3V205.2z"/>
				<path class="st6" d="M209.4,205.2h2.2l2.8,4.2v-4.2h2.2v7.5h-2.2l-2.8-4.1v4.1h-2.2V205.2z"/>
				<path class="st6" d="M223.1,209.7l2,0.6c-0.1,0.6-0.4,1-0.6,1.4c-0.3,0.4-0.7,0.7-1.1,0.9c-0.4,0.2-1,0.3-1.7,0.3
					c-0.8,0-1.5-0.1-2-0.4c-0.5-0.2-1-0.7-1.3-1.3c-0.4-0.6-0.6-1.4-0.6-2.3c0-1.2,0.3-2.2,1-2.9c0.7-0.7,1.6-1,2.8-1
					c0.9,0,1.7,0.2,2.2,0.6c0.5,0.4,0.9,1,1.2,1.8l-2.1,0.5c-0.1-0.2-0.1-0.4-0.2-0.5c-0.1-0.2-0.3-0.3-0.5-0.4
					c-0.2-0.1-0.4-0.1-0.6-0.1c-0.5,0-0.9,0.2-1.2,0.6c-0.2,0.3-0.3,0.8-0.3,1.5c0,0.8,0.1,1.4,0.4,1.7c0.3,0.3,0.6,0.5,1.1,0.5
					c0.4,0,0.8-0.1,1-0.4C222.9,210.5,223,210.1,223.1,209.7z"/>
				<path class="st6" d="M226.3,212.7v-7.5h3.9c0.7,0,1.3,0.1,1.6,0.2c0.4,0.1,0.7,0.4,0.9,0.7s0.3,0.7,0.3,1.2
					c0,0.4-0.1,0.8-0.3,1.1s-0.4,0.5-0.7,0.7c-0.2,0.1-0.5,0.2-0.8,0.3c0.3,0.1,0.5,0.2,0.6,0.3c0.1,0.1,0.2,0.2,0.4,0.4
					c0.2,0.2,0.3,0.4,0.3,0.5l1.1,2.2h-2.6l-1.2-2.3c-0.2-0.3-0.3-0.5-0.4-0.6c-0.2-0.1-0.4-0.2-0.6-0.2h-0.2v3.1H226.3z
					 M228.7,208.3h1c0.1,0,0.3,0,0.6-0.1c0.2,0,0.3-0.1,0.4-0.2c0.1-0.1,0.1-0.3,0.1-0.4c0-0.2-0.1-0.4-0.2-0.6
					c-0.2-0.1-0.4-0.2-0.9-0.2h-1V208.3z"/>
				<path class="st6" d="M234.5,205.2h6.2v1.6h-3.9v1.2h3.6v1.5h-3.6v1.5h4v1.7h-6.3V205.2z"/>
				<path class="st6" d="M242.1,205.2h3.5c0.7,0,1.2,0.1,1.6,0.3c0.4,0.2,0.8,0.4,1,0.8c0.3,0.3,0.5,0.7,0.6,1.2
					c0.1,0.5,0.2,0.9,0.2,1.5c0,0.8-0.1,1.4-0.3,1.9c-0.2,0.4-0.4,0.8-0.8,1.1s-0.7,0.5-1,0.6c-0.5,0.1-1,0.2-1.4,0.2h-3.5V205.2z
					 M244.4,206.9v4.1h0.6c0.5,0,0.8-0.1,1-0.2c0.2-0.1,0.4-0.3,0.5-0.6c0.1-0.3,0.2-0.7,0.2-1.3c0-0.8-0.1-1.3-0.4-1.6
					c-0.3-0.3-0.7-0.4-1.3-0.4H244.4z"/>
				<path class="st6" d="M250.3,205.2h2.3v7.5h-2.3V205.2z"/>
				<path class="st6" d="M254.3,205.2h4.4c0.7,0,1.3,0.2,1.7,0.5c0.4,0.4,0.6,0.8,0.6,1.3c0,0.4-0.1,0.8-0.4,1.1
					c-0.2,0.2-0.5,0.4-0.8,0.5c0.5,0.1,0.9,0.4,1.2,0.7c0.3,0.3,0.4,0.7,0.4,1.2c0,0.4-0.1,0.7-0.3,1.1c-0.2,0.3-0.4,0.6-0.7,0.7
					c-0.2,0.1-0.5,0.2-0.9,0.2c-0.5,0.1-0.9,0.1-1,0.1h-4V205.2z M256.7,208.2h1c0.4,0,0.6-0.1,0.8-0.2c0.1-0.1,0.2-0.3,0.2-0.5
					c0-0.2-0.1-0.4-0.2-0.5c-0.1-0.1-0.4-0.2-0.7-0.2h-1V208.2z M256.7,211.1h1.2c0.4,0,0.7-0.1,0.8-0.2c0.2-0.1,0.2-0.3,0.2-0.6
					c0-0.2-0.1-0.4-0.2-0.5c-0.2-0.1-0.4-0.2-0.9-0.2h-1.2V211.1z"/>
				<path class="st6" d="M262.5,205.2h2.3v5.7h3.6v1.9h-6V205.2z"/>
				<path class="st6" d="M269.5,205.2h6.2v1.6h-3.9v1.2h3.6v1.5h-3.6v1.5h4v1.7h-6.3V205.2z"/>
			</g>
			<g>
				<path class="st6" d="M209.1,240.7v-1.6h3.6v3.2c-0.7,0.5-1.3,0.8-1.8,1c-0.5,0.2-1.2,0.3-1.9,0.3c-0.9,0-1.6-0.2-2.2-0.5
					c-0.6-0.3-1-0.8-1.3-1.4c-0.3-0.6-0.5-1.3-0.5-2.1c0-0.8,0.2-1.5,0.5-2.1c0.3-0.6,0.8-1.1,1.5-1.4c0.5-0.2,1.2-0.4,2.1-0.4
					c0.8,0,1.5,0.1,1.9,0.2c0.4,0.2,0.8,0.4,1,0.7c0.3,0.3,0.5,0.7,0.6,1.2l-2.2,0.4c-0.1-0.3-0.2-0.5-0.5-0.7
					c-0.2-0.2-0.5-0.2-0.8-0.2c-0.5,0-0.9,0.2-1.2,0.5c-0.3,0.4-0.5,0.9-0.5,1.7c0,0.8,0.2,1.4,0.5,1.7s0.7,0.5,1.3,0.5
					c0.3,0,0.5,0,0.7-0.1c0.2-0.1,0.5-0.2,0.8-0.4v-0.7H209.1z"/>
				<path class="st6" d="M214.1,243.4v-7.5h3.9c0.7,0,1.3,0.1,1.6,0.2c0.4,0.1,0.7,0.4,0.9,0.7c0.2,0.3,0.3,0.7,0.3,1.2
					c0,0.4-0.1,0.8-0.3,1.1s-0.4,0.5-0.7,0.7c-0.2,0.1-0.5,0.2-0.8,0.3c0.3,0.1,0.5,0.2,0.6,0.3c0.1,0.1,0.2,0.2,0.4,0.4
					c0.2,0.2,0.3,0.4,0.3,0.5l1.1,2.2h-2.6l-1.2-2.3c-0.2-0.3-0.3-0.5-0.4-0.6c-0.2-0.1-0.4-0.2-0.6-0.2h-0.2v3.1H214.1z M216.4,239
					h1c0.1,0,0.3,0,0.6-0.1c0.2,0,0.3-0.1,0.4-0.2c0.1-0.1,0.1-0.3,0.1-0.4c0-0.2-0.1-0.4-0.2-0.6c-0.2-0.1-0.4-0.2-0.9-0.2h-1V239z
					"/>
				<path class="st6" d="M222.2,235.9h6.2v1.6h-3.9v1.2h3.6v1.5h-3.6v1.5h4v1.7h-6.3V235.9z"/>
				<path class="st6" d="M234.4,242.2h-2.6l-0.4,1.2h-2.4l2.8-7.5h2.5l2.8,7.5h-2.4L234.4,242.2z M234,240.6l-0.8-2.7l-0.8,2.7H234z
					"/>
				<path class="st6" d="M236.7,235.9h7.1v1.9h-2.4v5.7h-2.3v-5.7h-2.4V235.9z"/>
			</g>
			<g>
				<path class="st6" d="M209.9,226.9h-2.6l-0.4,1.2h-2.4l2.8-7.5h2.5l2.8,7.5h-2.4L209.9,226.9z M209.4,225.2l-0.8-2.7l-0.8,2.7
					H209.4z"/>
				<path class="st6" d="M212.8,220.6h2.2l0.8,4.2l1.2-4.2h2.2l1.2,4.2l0.8-4.2h2.2l-1.7,7.5h-2.3l-1.3-4.7l-1.3,4.7h-2.3
					L212.8,220.6z"/>
				<path class="st6" d="M224.1,220.6h6.2v1.6h-3.9v1.2h3.6v1.5h-3.6v1.5h4v1.7h-6.3V220.6z"/>
				<path class="st6" d="M231.2,225.6l2.2-0.1c0,0.4,0.1,0.6,0.3,0.8c0.2,0.3,0.6,0.5,1,0.5c0.3,0,0.6-0.1,0.8-0.2
					c0.2-0.2,0.3-0.3,0.3-0.5c0-0.2-0.1-0.4-0.3-0.5c-0.2-0.2-0.6-0.3-1.2-0.4c-1-0.2-1.7-0.5-2.2-0.9c-0.4-0.4-0.7-0.9-0.7-1.5
					c0-0.4,0.1-0.8,0.3-1.1s0.6-0.6,1-0.8c0.4-0.2,1.1-0.3,1.8-0.3c1,0,1.7,0.2,2.2,0.5c0.5,0.4,0.8,0.9,0.9,1.7l-2.2,0.1
					c-0.1-0.3-0.2-0.6-0.4-0.7c-0.2-0.2-0.4-0.2-0.8-0.2c-0.3,0-0.5,0.1-0.6,0.2c-0.1,0.1-0.2,0.3-0.2,0.4c0,0.1,0.1,0.2,0.2,0.3
					c0.1,0.1,0.4,0.2,0.8,0.3c1,0.2,1.7,0.4,2.2,0.7s0.8,0.5,1,0.8c0.2,0.3,0.3,0.7,0.3,1.1c0,0.5-0.1,0.9-0.4,1.3
					c-0.3,0.4-0.6,0.7-1.1,0.9c-0.5,0.2-1.1,0.3-1.8,0.3c-1.3,0-2.2-0.2-2.7-0.7C231.6,227,231.3,226.4,231.2,225.6z"/>
				<path class="st6" d="M238.9,224.3c0-1.2,0.3-2.2,1-2.9c0.7-0.7,1.6-1,2.9-1c1.3,0,2.2,0.3,2.9,1c0.7,0.7,1,1.6,1,2.8
					c0,0.9-0.1,1.6-0.4,2.2c-0.3,0.6-0.7,1-1.3,1.3c-0.6,0.3-1.3,0.5-2.1,0.5c-0.8,0-1.6-0.1-2.1-0.4c-0.6-0.3-1-0.7-1.4-1.3
					S238.9,225.2,238.9,224.3z M241.3,224.3c0,0.8,0.1,1.3,0.4,1.6c0.3,0.3,0.7,0.5,1.2,0.5c0.5,0,0.9-0.2,1.2-0.5
					c0.3-0.3,0.4-0.9,0.4-1.8c0-0.7-0.1-1.2-0.4-1.6s-0.7-0.5-1.2-0.5c-0.5,0-0.8,0.2-1.1,0.5C241.4,223,241.3,223.6,241.3,224.3z"
					/>
				<path class="st6" d="M248,220.6h3.1l1.2,4.6l1.2-4.6h3.1v7.5h-1.9v-5.7l-1.5,5.7h-1.7l-1.5-5.7v5.7H248V220.6z"/>
				<path class="st6" d="M257.9,220.6h6.2v1.6h-3.9v1.2h3.6v1.5h-3.6v1.5h4v1.7h-6.3V220.6z"/>
			</g>
			<g>
				<path class="st6" d="M205.3,250.5h2.2l2.8,4.2v-4.2h2.2v7.5h-2.2l-2.8-4.1v4.1h-2.2V250.5z"/>
				<path class="st6" d="M214,250.5h6.2v1.6h-3.9v1.2h3.6v1.5h-3.6v1.5h4v1.7H214V250.5z"/>
				<path class="st6" d="M220.8,250.5h2.2l0.8,4.2l1.2-4.2h2.2l1.2,4.2l0.8-4.2h2.2l-1.7,7.5h-2.3l-1.3-4.7l-1.3,4.7h-2.3
					L220.8,250.5z"/>
			</g>
			<g>
				<rect x="198.9" y="197.7" class="st8" width="204.9" height="128.4"/>
			</g>
		</g>
		<polygon class="st9" points="327.9,197.7 198.9,197.7 198.9,328.8 276.6,326.1 		"/>
		<g>
			<path class="st10" d="M253.1,276.5h-22.5c-2.6,0-4.7-2.1-4.7-4.7v-1.3c0-2.6,2.1-4.7,4.7-4.7h22.5c2.6,0,4.7,2.1,4.7,4.7v1.3
				C257.8,274.4,255.6,276.5,253.1,276.5z"/>
		</g>
		<g>
			<path class="st10" d="M253.1,222h-22.5c-2.6,0-4.7-2.1-4.7-4.7V216c0-2.6,2.1-4.7,4.7-4.7h22.5c2.6,0,4.7,2.1,4.7,4.7v1.3
				C257.8,219.9,255.6,222,253.1,222z"/>
		</g>
		<g>
			<path class="st6" d="M333.9,222h-67.3c-2.6,0-4.7-2.1-4.7-4.7V216c0-2.6,2.1-4.7,4.7-4.7h67.3c2.6,0,4.7,2.1,4.7,4.7v1.3
				C338.6,219.9,336.4,222,333.9,222z"/>
		</g>
		<g>
			<path class="st6" d="M263.1,240.3h-14.7c-2.6,0-4.7-2.1-4.7-4.7v-1.3c0-2.6,2.1-4.7,4.7-4.7h14.7c2.6,0,4.7,2.1,4.7,4.7v1.3
				C267.8,238.2,265.7,240.3,263.1,240.3z"/>
		</g>
		<g>
			<path class="st11" d="M275.1,294h-14.7c-2.6,0-4.7-2.1-4.7-4.7v-1.3c0-2.6,2.1-4.7,4.7-4.7h14.7c2.6,0,4.7,2.1,4.7,4.7v1.3
				C279.8,291.8,277.7,294,275.1,294z"/>
		</g>
		<g>
			<path class="st6" d="M275.1,310.5h-14.7c-2.6,0-4.7-2.1-4.7-4.7v-1.3c0-2.6,2.1-4.7,4.7-4.7h14.7c2.6,0,4.7,2.1,4.7,4.7v1.3
				C279.8,308.4,277.7,310.5,275.1,310.5z"/>
		</g>
		<g>
			<path class="st6" d="M328.8,294h-39.3c-2.6,0-4.7-2.1-4.7-4.7v-1.3c0-2.6,2.1-4.7,4.7-4.7h39.3c2.6,0,4.7,2.1,4.7,4.7v1.3
				C333.5,291.8,331.4,294,328.8,294z"/>
		</g>
		<g>
			<path class="st6" d="M298.9,240.3h-22.2c-2.6,0-4.7-2.1-4.7-4.7v-1.3c0-2.6,2.1-4.7,4.7-4.7h22.2c2.6,0,4.7,2.1,4.7,4.7v1.3
				C303.6,238.2,301.5,240.3,298.9,240.3z"/>
		</g>
		<g>
			<path class="st11" d="M270.6,258.4h-22.2c-2.6,0-4.7-2.1-4.7-4.7v-1.3c0-2.6,2.1-4.7,4.7-4.7h22.2c2.6,0,4.7,2.1,4.7,4.7v1.3
				C275.3,256.3,273.2,258.4,270.6,258.4z"/>
		</g>
		<g>
			<path class="st6" d="M292.3,258.4h-8.8c-2.6,0-4.7-2.1-4.7-4.7v-1.3c0-2.6,2.1-4.7,4.7-4.7h8.8c2.6,0,4.7,2.1,4.7,4.7v1.3
				C296.9,256.3,294.8,258.4,292.3,258.4z"/>
		</g>
		<g>
			<path class="st6" d="M351.6,240.3h-38.5c-2.6,0-4.7-2.1-4.7-4.7v-1.3c0-2.6,2.1-4.7,4.7-4.7h38.5c2.6,0,4.7,2.1,4.7,4.7v1.3
				C356.3,238.2,354.2,240.3,351.6,240.3z"/>
		</g>
	</g>
</g>
<g>
	<circle class="st12" cx="470.2" cy="131.4" r="61.3"/>
	<g>
		<defs>
			<circle id="SVGID_3_" cx="470.2" cy="131.8" r="61"/>
		</defs>
		<clipPath id="SVGID_4_">
			<use xlink:href="#SVGID_3_"  style="overflow:visible;"/>
		</clipPath>
		<g class="st13">
			<g>
				<g>
					<path class="st14" d="M443.2,158.1"/>
				</g>
			</g>
		</g>
		<g class="st13">
			<g>
				<g>
					<path class="st14" d="M443.2,142.6"/>
				</g>
			</g>
		</g>
		<g class="st13">
			<g>
				<rect x="455.4" y="77.2" class="st15" width="31.1" height="79"/>
			</g>
		</g>
		<g class="st13">
			<g>
				<path class="st16" d="M452.1,95.1h-0.6c-1.1,0-2-0.9-2-2v-0.6c0-1.1,0.9-2,2-2h0.6c1.1,0,2,0.9,2,2v0.6
					C454.1,94.2,453.2,95.1,452.1,95.1z"/>
			</g>
		</g>
		<g class="st13">
			<g>
				<path class="st16" d="M490.3,95.1h-0.6c-1.1,0-2-0.9-2-2v-0.6c0-1.1,0.9-2,2-2h0.6c1.1,0,2,0.9,2,2v0.6
					C492.3,94.2,491.4,95.1,490.3,95.1z"/>
			</g>
		</g>
		<g class="st13">
			<g>
				<ellipse class="st17" cx="485.8" cy="81.9" rx="5.3" ry="6"/>
			</g>
		</g>
		<g class="st13">
			<g>
				<ellipse class="st17" cx="455.2" cy="81.9" rx="5.3" ry="6"/>
			</g>
		</g>
		<g class="st13">
			<g>
				<path class="st16" d="M488.2,106.2c0,8.2-6.7,15-15,15h-4.7c-8.2,0-15-6.7-15-15V81.7c0-8.2,6.7-15,15-15h4.7
					c8.2,0,15,6.7,15,15V106.2z"/>
			</g>
		</g>
		<g class="st13">
			<g>
				<path class="st18" d="M468.4,108.8"/>
			</g>
		</g>
		<path class="st19" d="M476.7,104.7c0,1.1-3,1.9-5.8,1.9s-5.9-0.9-5.9-1.9c0-1.1,3.1-1.9,5.9-1.9S476.7,103.6,476.7,104.7z"/>
		<g class="st13">
			<g>
				<path class="st17" d="M486.8,82.6c0,0,0.8,21.4-5.3,21.4c0,0-1.5,0-1.5,4c0,0,0.2,0.8-0.5,0.8c-0.7,0-1.7,0.2-1.7-1.2
					c0-1.4,1.6-5.5-4.5-5.5l-2.4,0.1v1.8c0,0-0.4,0.5,2.5,0.5c2.9,0,2.5,4,2.5,4v2.3c0,0,0.1,1.6-1.4,1.6s-2.7-0.1-2.7-2h-1h-1
					c0,1.9-1.1,2-2.7,2c-1.6,0-1.4-1.6-1.4-1.6v-2.3c0,0-0.4-4,2.5-4c2.9,0,2.5-0.5,2.5-0.5v-1.8l-2.4-0.1c-6.1,0-4.5,4.1-4.5,5.5
					c0,1.4-1.2,1.2-1.7,1.2c-0.7,0-0.5-0.8-0.5-0.8c0-4-1.5-4-1.5-4c-6.1,0-5.7-21.4-5.7-21.4l-1.4,0l0.4,29.3c0,0,0,7.8,9.9,11
					c3.3,1.4,7.5,1.8,7.5,1.8s4.1-0.1,7.5-1.8c9.9-3.5,9.9-11,9.9-11V82.6L486.8,82.6z"/>
			</g>
		</g>
		<g class="st13">
			<g>
				<path class="st17" d="M463.4,108.7c0,0,0.2,0.2,0.2-1.3c0-1.4-0.8-4.4,1-5.3s6.4-1.4,6.4,0.1l-0.3,0.1l0.5,2l-6.9-0.2l-0.1,3
					l-0.3,1.4l-0.5,0.3L463.4,108.7z"/>
			</g>
		</g>
		<g class="st13">
			<g>
				<path class="st17" d="M478.4,108.7c0,0-0.2,0.2-0.2-1.3c0-1.4,0.8-4.4-1-5.3c-1.8-0.9-6.4-1.4-6.4,0.1l-0.5,0.2v1.5l7.1,1.5
					l0.1,1.7l0.3,1.4l0.5,0.3L478.4,108.7z"/>
			</g>
		</g>
		<g class="st13">
			<g>
				<path class="st16" d="M467.5,98.4c0-1.9,1.5,0.2,3.4,0.2s3.4-2.1,3.4-0.2c0,1.9-1.5,3.4-3.4,3.4
					C469,101.9,467.5,100.3,467.5,98.4z"/>
			</g>
		</g>
		<g class="st20">
			<g>
				<path class="st21" d="M472.6,97.4c0,0.6-0.8-0.1-1.7-0.1c-0.9,0-1.7,0.7-1.7,0.1c0-0.6,0.8-1.1,1.7-1.1
					C471.8,96.3,472.6,96.8,472.6,97.4z"/>
			</g>
		</g>
		<g class="st13">
			<g>
				<path class="st15" d="M463.4,92.1c0,0-0.6,4.5-4.2,4.5"/>
			</g>
		</g>
		<g class="st13">
			<g>
				<path class="st15" d="M478.2,92.1c0,0,0.6,4.5,4.2,4.5"/>
			</g>
		</g>
		<g class="st13">
			<g>
				<g>
					<path class="st22" d="M462.1,90.6c0-0.9-0.8-1.7-1.7-1.7c-0.9,0-1.7,0.7-1.7,1.7h0c0,0,0,0,0,0c0,0,0,0,0,0h0
						c0,0.9,0.8,1.7,1.7,1.7C461.3,92.3,462,91.6,462.1,90.6L462.1,90.6C462.1,90.6,462.1,90.6,462.1,90.6
						C462.1,90.6,462.1,90.6,462.1,90.6L462.1,90.6z"/>
				</g>
			</g>
		</g>
		<g class="st13">
			<g>
				<polyline class="st17" points="486.8,82.6 482.4,79.1 470.7,81 462.3,76.1 455.5,78.3 454.5,82.6 				"/>
			</g>
		</g>
		<g class="st13">
			<g>
				<ellipse class="st17" cx="465.6" cy="70.7" rx="9.8" ry="8.7"/>
			</g>
		</g>
		<g class="st13">
			<g>
				<ellipse class="st17" cx="476" cy="70.6" rx="6.8" ry="6"/>
			</g>
		</g>
		<g class="st13">
			<g>
				<polygon class="st17" points="473.7,71.7 465,76.6 469.4,80.2 475.9,77.3 				"/>
			</g>
		</g>
		<g class="st13">
			<g>
				<path class="st16" d="M480.5,74c0,0-5.6,0-7.4,2.9c-0.4,0.9-1.8,1.1-2.4,1.1v0c0,0-0.1,0-0.1,0c-0.1,0-0.2,0-0.2,0l0,0
					c-0.5,0-1.7-0.2-2.1-1.1c-1.8-2.9-7.4-2.9-7.4-2.9s-7.5,0.2-6.3,8.6l16.1,1l0,0h0l16.1-1C488.1,74.2,480.5,74,480.5,74z"/>
			</g>
		</g>
		<g class="st13">
			<g>
				<polygon class="st17" points="486.9,81.6 486.8,82.6 487.3,83.3 489.6,83 488.7,79.6 				"/>
			</g>
		</g>
		<g class="st13">
			<g>
				<path class="st17" d="M483.8,87.1c-0.3,0-0.7-0.1-0.9-0.4c-0.1-0.1-0.7-0.4-2.4-0.4c-2.1,0-2.9,0.5-2.9,0.5c0,0,0.1,0,0.1,0
					l-1.7-2.1c0.3-0.2,1.5-1,4.5-1c3,0,4.1,0.8,4.4,1.2c0.5,0.6,0.4,1.4-0.2,1.9C484.4,87,484.1,87.1,483.8,87.1z M482.8,86.6
					L482.8,86.6L482.8,86.6z M482.8,86.6C482.8,86.6,482.8,86.6,482.8,86.6C482.8,86.6,482.8,86.6,482.8,86.6z M482.8,86.6
					C482.8,86.6,482.8,86.6,482.8,86.6C482.8,86.6,482.8,86.6,482.8,86.6z"/>
			</g>
		</g>
		<g class="st13">
			<g>
				<path class="st15" d="M455.9,90.1c0,0,4.5-1.7,8.2-0.2l-0.8-3.2l-6.1,0.5L455.9,90.1z"/>
			</g>
		</g>
		<g class="st13">
			<g>
				<g>
					<path class="st22" d="M479,90.6c0-0.9,0.8-1.7,1.7-1.7s1.7,0.7,1.7,1.7h0c0,0,0,0,0,0c0,0,0,0,0,0h0c0,0.9-0.8,1.7-1.7,1.7
						C479.8,92.3,479,91.6,479,90.6L479,90.6C479,90.6,479,90.6,479,90.6C479,90.6,479,90.6,479,90.6L479,90.6z"/>
				</g>
			</g>
		</g>
		<g class="st13">
			<g>
				<path class="st15" d="M485.1,90.1c0,0-4.5-1.7-8.2-0.2l0.8-3.2l6.1,0.5L485.1,90.1z"/>
			</g>
		</g>
		<g class="st13">
			<g>
				<path class="st17" d="M457.3,87.1c-0.3,0-0.6-0.1-0.8-0.3c-0.6-0.5-0.7-1.3-0.2-1.9c0.4-0.5,1.4-1.2,4.4-1.2c3,0,4.2,0.8,4.5,1
					l-1.7,2.1c0,0,0,0,0.1,0c0,0-0.8-0.5-2.9-0.5c-1.7,0-2.3,0.3-2.4,0.4C458,87,457.7,87.1,457.3,87.1z M458.4,86.6
					C458.4,86.6,458.4,86.6,458.4,86.6C458.4,86.6,458.4,86.6,458.4,86.6z M458.4,86.6C458.4,86.6,458.4,86.6,458.4,86.6
					C458.4,86.6,458.4,86.6,458.4,86.6z"/>
			</g>
		</g>
		<g class="st13">
			<g>
				<path class="st6" d="M511.5,135.1l-24.6-5.7v0c0,0,0,0,0,0v0c0,0,0,0-0.1,0l-0.1,0c0,0,0,0,0,0l0,0c-0.7,0.3-1.5,0.6-2.2,0.9
					c-2.7,0.9-7.5,2.1-13.2,2.2c-5.7-0.1-10.5-1.3-13.2-2.2c-0.7-0.3-1.5-0.6-2.2-0.9l0,0c0,0,0,0,0,0l-0.1,0c0,0-0.1,0-0.1,0v0
					c0,0,0,0,0,0v0l-21.1,4.9l3.7,24.3l1.4,68h31.7l0-16.7v16.7l26.1,0l6.9-68L511.5,135.1z"/>
			</g>
		</g>
		<g class="st13">
			<g>
				<polygon class="st23" points="516.1,134.4 504.9,158.6 503.6,226.5 480.3,246 485.5,137 487.1,129.7 486.8,128.6 486.8,127.2
									"/>
			</g>
		</g>
		<g class="st13">
			<g>
				<g>
					<path class="st24" d="M514.1,218.1c-6.7,0-12.1-5.4-12.1-12.1v-59.7c0-6.7,5.4-12.1,12.1-12.1s12.1,5.4,12.1,12.1V206
						C526.2,212.7,520.8,218.1,514.1,218.1z"/>
				</g>
			</g>
		</g>
		<g class="st13">
			<g>
				<path class="st16" d="M470.6,125.9c0,0-1.9,0.1-1.9,1.9c0,1.2,1,1.8,1.9,1.8"/>
			</g>
		</g>
		<g class="st13">
			<g>
				<polygon class="st23" points="424.3,134.4 435.4,158.6 436.8,226.5 460.1,246 454.8,137 454.1,129.3 454.8,127.7 453.2,128
					"/>
			</g>
		</g>
		<g class="st13">
			<g>
				<g>
					<path class="st24" d="M425,218.1c6.7,0,12.1-5.4,12.1-12.1v-59.7c0-6.7-5.4-12.1-12.1-12.1s-12.1,5.4-12.1,12.1V206
						C413,212.7,418.4,218.1,425,218.1z"/>
				</g>
			</g>
		</g>
		<g class="st13">
			<polygon class="st17" points="464.7,135.7 470.8,141.8 477.8,134.8 473.4,132.3 467.1,132.3 			"/>
		</g>
		<g class="st13">
			<polygon class="st6" points="470.9,132.4 455.4,123.3 454.1,129.3 462.9,140.7 			"/>
		</g>
		<g class="st13">
			<polygon class="st6" points="470.9,132.4 486.5,123.3 487.2,129.4 479,140.7 			"/>
		</g>
		<g class="st13">
			<polygon class="st17" points="469.1,139.9 465.7,216.1 470.4,223.7 474.8,216.1 472.5,139.9 			"/>
		</g>
	</g>
	<g>
		<g class="st25">
			<g>
				<g>
					<polygon class="st26" points="454.3,87.1 467.9,87.1 466.1,95.3 455.4,95.8 					"/>
				</g>
			</g>
			<g>
				<g>
					<polygon class="st26" points="487.7,87.1 473,87.1 474.8,95.3 486.5,95.8 					"/>
				</g>
			</g>
		</g>
		<g>
			<g>
				<g>
					<path class="st27" d="M465.9,96.4h-10.5c-0.6,0-1.1-0.4-1.2-1l-1.3-7.8c-0.1-0.3,0-0.7,0.2-0.9c0.2-0.2,0.5-0.4,0.8-0.4h13.9
						c0.3,0,0.7,0.1,0.9,0.4c0.2,0.3,0.3,0.6,0.2,0.9l-1.8,7.8C467,96,466.4,96.4,465.9,96.4z M466.3,95.3L466.3,95.3L466.3,95.3z
						 M455.7,94.8h9.8l1.6-6.9h-12.6L455.7,94.8z"/>
				</g>
			</g>
			<g>
				<g>
					<path class="st27" d="M486.2,96.4h-10.5c-0.6,0-1.1-0.4-1.2-1l-1.8-7.8c-0.1-0.3,0-0.7,0.2-0.9c0.2-0.3,0.5-0.4,0.9-0.4h13.9
						c0.3,0,0.6,0.1,0.8,0.4c0.2,0.2,0.3,0.6,0.2,0.9l-1.3,7.8C487.3,96,486.7,96.4,486.2,96.4z M476,95.1L476,95.1L476,95.1z
						 M476,94.8h9.8l1.2-6.9h-12.6L476,94.8z"/>
				</g>
			</g>
			<g>
				<g>
					<path class="st27" d="M475.4,87.9h-9.8c-0.4,0-0.8-0.4-0.8-0.8c0-0.4,0.4-0.8,0.8-0.8h9.8c0.4,0,0.8,0.4,0.8,0.8
						C476.2,87.5,475.8,87.9,475.4,87.9z"/>
				</g>
			</g>
		</g>
	</g>
	<polygon class="st28" points="439.9,63.1 471.6,48.8 502.9,64.8 469.3,71 	"/>
	<path class="st29" d="M488.1,62.9c-22.3-5.9-34.6,0-34.6,0l-2.2,15.6l16.7,1.8l21-1.8L488.1,62.9z"/>
</g>
<g>
	<circle class="st16" cx="126.3" cy="180.2" r="37.7"/>
	<g>
		<g>
			<g>

					<ellipse transform="matrix(0.7386 -0.6741 0.6741 0.7386 -101.6369 124.6701)" class="st30" cx="109.9" cy="193.4" rx="2.4" ry="4.4"/>
			</g>
			<g>
				<path class="st6" d="M133.1,160.9c-3.2,1.3-6.6,3.2-9.7,6.1c-11,10-16.6,23.4-16.6,23.4l2.6,2.8l0.3,0.3l3,3.3
					c0,0,13.8-4.4,24.8-14.4c3.1-2.8,5.3-6,6.9-9.1c-2.3-1.2-4.6-3-6.6-5.3C135.7,165.7,134.1,163.3,133.1,160.9z"/>
				<path class="st17" d="M148.4,158.3L148.4,158.3c0,0-7.2-0.7-15.3,2.6c1,2.4,2.6,4.8,4.7,7.1c2.1,2.3,4.4,4.1,6.6,5.3
					C148.4,165.5,148.4,158.3,148.4,158.3z"/>
			</g>
			<path class="st17" d="M103.3,199.4c0,0,11.8-14.1,13.5-14.8c1.6-0.6,2.2,0.1,2.3,0.4c0.3,0.2,0.9,0.8,0.2,2.4
				C118.4,189.1,103.3,199.5,103.3,199.4L103.3,199.4z"/>
			<path class="st17" d="M113.6,178.4c0,0-10-1.1-15.9,12.1l9.1-0.1L113.6,178.4z"/>
			<g>
				<path class="st17" d="M125.2,191.2c0,0,0.2,10-13.5,14.7l0.9-9.1L125.2,191.2z"/>
			</g>
		</g>

			<ellipse transform="matrix(0.7386 -0.6741 0.6741 0.7386 -85.6102 132.6383)" class="st31" cx="128.2" cy="176.7" rx="4.9" ry="4.9"/>
	</g>
</g>
<g>
	<circle class="st17" cx="387" cy="420.4" r="39"/>
	<g>
		<path class="st32" d="M407.9,428h-44.6v-25c0-1.8,1.5-3.3,3.3-3.3h38.2c1.7,0,3.1,1.4,3.1,3.1V428z"/>
		<path class="st32" d="M410.1,433.4h-48.9c-0.9,0-1.7-0.7-1.7-1.7v-0.5c0-0.9,0.7-1.7,1.7-1.7h48.9c0.9,0,1.7,0.7,1.7,1.7v0.5
			C411.7,432.6,411,433.4,410.1,433.4z"/>
		<rect x="366.2" y="403" class="st8" width="19.4" height="22"/>
		<rect x="385.6" y="403" class="st6" width="19.4" height="22"/>
		<path class="st6" d="M375,408.1h-5.6c-0.4,0-0.7-0.3-0.7-0.7v-0.2c0-0.4,0.3-0.7,0.7-0.7h5.6c0.4,0,0.7,0.3,0.7,0.7v0.2
			C375.6,407.8,375.3,408.1,375,408.1z"/>
		<path class="st6" d="M379.5,412.1h-10.2c-0.4,0-0.7-0.3-0.7-0.7v-0.2c0-0.4,0.3-0.7,0.7-0.7h10.2c0.4,0,0.7,0.3,0.7,0.7v0.2
			C380.2,411.8,379.9,412.1,379.5,412.1z"/>
		<path class="st12" d="M377.2,415.7h-7.9c-0.4,0-0.7-0.3-0.7-0.7v-0.2c0-0.4,0.3-0.7,0.7-0.7h7.9c0.4,0,0.7,0.3,0.7,0.7v0.2
			C377.9,415.4,377.6,415.7,377.2,415.7z"/>
		<path class="st16" d="M381.1,408.1h-3.8c-0.4,0-0.7-0.3-0.7-0.7v-0.2c0-0.4,0.3-0.7,0.7-0.7h3.8c0.4,0,0.7,0.3,0.7,0.7v0.2
			C381.8,407.8,381.5,408.1,381.1,408.1z"/>
		<path class="st6" d="M375,419.6h-5.6c-0.4,0-0.7-0.3-0.7-0.7v-0.2c0-0.4,0.3-0.7,0.7-0.7h5.6c0.4,0,0.7,0.3,0.7,0.7v0.2
			C375.6,419.3,375.3,419.6,375,419.6z"/>
		<path class="st16" d="M381.1,419.6h-3.8c-0.4,0-0.7-0.3-0.7-0.7v-0.2c0-0.4,0.3-0.7,0.7-0.7h3.8c0.4,0,0.7,0.3,0.7,0.7v0.2
			C381.8,419.3,381.5,419.6,381.1,419.6z"/>
		<circle class="st11" cx="391.9" cy="409.4" r="2.4"/>
		<circle class="st11" cx="399.4" cy="409.4" r="2.4"/>
		<path class="st33" d="M394.9,414.1h-6c-0.2,0-0.4-0.2-0.4-0.4v-0.1c0-0.2,0.2-0.4,0.4-0.4h6c0.2,0,0.4,0.2,0.4,0.4v0.1
			C395.3,413.9,395.1,414.1,394.9,414.1z"/>
		<path class="st33" d="M393.8,416.2H390c-0.2,0-0.4-0.2-0.4-0.4v-0.1c0-0.2,0.2-0.4,0.4-0.4h3.8c0.2,0,0.4,0.2,0.4,0.4v0.1
			C394.2,416,394.1,416.2,393.8,416.2z"/>
		<path class="st33" d="M394.5,418.1h-5.3c-0.2,0-0.4-0.2-0.4-0.4v-0.1c0-0.2,0.2-0.4,0.4-0.4h5.3c0.2,0,0.4,0.2,0.4,0.4v0.1
			C395,417.9,394.8,418.1,394.5,418.1z"/>
		<path class="st33" d="M402.4,414.1h-6c-0.2,0-0.4-0.2-0.4-0.4v-0.1c0-0.2,0.2-0.4,0.4-0.4h6c0.2,0,0.4,0.2,0.4,0.4v0.1
			C402.8,413.9,402.6,414.1,402.4,414.1z"/>
		<path class="st33" d="M401.3,416.2h-3.8c-0.2,0-0.4-0.2-0.4-0.4v-0.1c0-0.2,0.2-0.4,0.4-0.4h3.8c0.2,0,0.4,0.2,0.4,0.4v0.1
			C401.7,416,401.5,416.2,401.3,416.2z"/>
		<path class="st33" d="M402,418.1h-5.3c-0.2,0-0.4-0.2-0.4-0.4v-0.1c0-0.2,0.2-0.4,0.4-0.4h5.3c0.2,0,0.4,0.2,0.4,0.4v0.1
			C402.4,417.9,402.2,418.1,402,418.1z"/>
		<rect x="388.5" y="420.5" class="st33" width="14.3" height="4.5"/>
	</g>
</g>
<g>
	<circle class="st34" cx="119.4" cy="349.2" r="63.2"/>
	<g>
		<g>
			<defs>
				<circle id="SVGID_5_" cx="119.4" cy="349.2" r="63.2"/>
			</defs>
			<clipPath id="SVGID_6_">
				<use xlink:href="#SVGID_5_"  style="overflow:visible;"/>
			</clipPath>
			<g class="st35">
				<path class="st36" d="M135,368.2h-31l-0.9,25.4v78.3h9.5v-32.4c0,0-0.4-14.2,1.9-27.3c2.7-10.1,5-10,5-10v0l0,0l0,0v0
					c0,0,2.4-0.1,5,10c0,0,0,0,0,0c2.3,13.1,1.9,27.2,1.9,27.2v32.4h9.5v-78.3L135,368.2z"/>
			</g>
		</g>
		<g>
			<polygon class="st37" points="114.5,324.8 110.4,329.2 110.8,338.3 127.9,339.7 125.9,325.9 124.3,324.8 			"/>
		</g>
		<g>
			<g>
				<path class="st37" d="M119.4,345.2c-2.7,0-4.9-2.2-4.9-4.9l0-31.1c0-2.7,2.2-4.9,4.9-4.9s4.9,2.2,4.9,4.9l0,31.1
					C124.3,343,122.1,345.2,119.4,345.2z"/>
			</g>
		</g>
		<g>
			<ellipse class="st38" cx="119.4" cy="275.3" rx="8.2" ry="5.9"/>
		</g>
		<g>
			<ellipse class="st39" cx="119.4" cy="276.5" rx="8.2" ry="5.9"/>
		</g>
		<g>
			<path class="st38" d="M103.4,290.9c0,0,0,27.7,16.1,27.7s16.2-28.7,16.2-28.7L103.4,290.9z"/>
		</g>
		<g>
			<g>
				<path class="st40" d="M106.2,303h-1.1c-0.5,0-0.9-0.4-0.9-0.9v-2.3c0-0.5,0.4-0.9,0.9-0.9h1.1c0.5,0,0.9,0.4,0.9,0.9v2.3
					C107.2,302.5,106.8,303,106.2,303z"/>
			</g>
			<g>
				<path class="st40" d="M133.8,303h-1.1c-0.5,0-0.9-0.4-0.9-0.9v-2.3c0-0.5,0.4-0.9,0.9-0.9h1.1c0.5,0,0.9,0.4,0.9,0.9v2.3
					C134.8,302.5,134.3,303,133.8,303z"/>
			</g>
		</g>
		<g>
			<path class="st40" d="M131.6,311.2c0,5.3-9.8,9.6-12.1,9.6c-2.3,0-12.1-4.3-12.1-9.6l-1.7-22c0-5.3,4.3-9.6,9.6-9.6h8.5
				c5.3,0,9.6,4.3,9.6,9.6L131.6,311.2z"/>
		</g>
		<g class="st41">
			<path class="st42" d="M120.6,307.9c0,0.4-0.5,0-1.1,0s-1.1,0.4-1.1,0c0-0.4,0.5-0.7,1.1-0.7S120.6,307.5,120.6,307.9z"/>
		</g>
		<g>
			<g>
				<path class="st38" d="M135.6,289.4c0-8.9-7.2-17.4-16.2-17.4s-16.2,8.5-16.2,17.4c0,8.9,7.2,7.5,16.2,7.5
					S135.6,298.3,135.6,289.4z"/>
			</g>
		</g>
		<g>
			<path class="st38" d="M103.3,288.1"/>
		</g>
		<g>
			<g>
				<path class="st43" d="M119.5,312.8h-0.1h-2.8c0,0.4,1.3,1,2.9,1c1.6,0,2.9-0.7,2.9-1H119.5z"/>
			</g>
			<g>
				<path class="st44" d="M121.2,312.5c-0.6-0.2-1.3-0.3-1.4-0.3c-0.1,0-0.2,0.3-0.5,0.3c-0.2,0-0.4-0.3-0.5-0.3
					c-0.1,0-0.8,0.1-1.4,0.3c-0.5,0.1-1,0.3-1,0.3h2.8h0.1h2.8C122.3,312.8,121.8,312.6,121.2,312.5z"/>
			</g>
		</g>
		<g>
			<circle class="st45" cx="111.7" cy="302" r="1.3"/>
		</g>
		<g>
			<circle class="st45" cx="127.3" cy="302" r="1.3"/>
		</g>
		<g>
			<path class="st38" d="M105.1,293.2c0,0-0.9,18.6,2.1,23.2v-22.9L105.1,293.2z"/>
		</g>
		<g>
			<path class="st38" d="M133.9,293.2c0,0,0.9,18.6-2.1,23.2v-22.9L133.9,293.2z"/>
		</g>
		<g class="st25">

				<image style="overflow:visible;" width="629" height="484" xlink:href="2474C73EE43F33DB.png"  transform="matrix(1.367518e-02 0 0 1.367518e-02 106.5284 303.8449)">
			</image>
		</g>
		<g class="st25">

				<image style="overflow:visible;" width="629" height="484" xlink:href="2474C73EE43F33D9.png"  transform="matrix(1.367518e-02 0 0 1.367518e-02 123.1437 303.8449)">
			</image>
		</g>
		<g>
			<g>
				<g>
					<path class="st46" d="M113.8,306.6h-3.8c-2,0-3.6-1.5-3.6-3.4v-5.3h0.4v5.3c0,1.6,1.4,3,3.2,3h3.8c1.8,0,3.2-1.3,3.2-3v-5.3
						h0.4v5.3C117.5,305.1,115.8,306.6,113.8,306.6z"/>
				</g>
			</g>
			<g>
				<g>
					<path class="st46" d="M128.9,306.6h-3.7c-2,0-3.6-1.5-3.6-3.4v-5.3h0.4v5.3c0,1.6,1.4,3,3.2,3h3.7c1.7,0,3.2-1.3,3.2-3v-5.3
						h0.4v5.3C132.4,305.1,130.8,306.6,128.9,306.6z"/>
				</g>
			</g>
			<g>
				<g>
					<g>
						<g>
							<g>
								<path class="st47" d="M117.2,298.8h-11c-0.2,0-0.4-0.2-0.4-0.4V298c0-0.2,0.2-0.4,0.4-0.4h11c0.2,0,0.4,0.2,0.4,0.4v0.5
									C117.6,298.6,117.4,298.8,117.2,298.8z"/>
							</g>
						</g>
						<g>
							<g>
								<path class="st47" d="M132.8,298.8h-11c-0.2,0-0.4-0.2-0.4-0.4V298c0-0.2,0.2-0.4,0.4-0.4h11c0.2,0,0.4,0.2,0.4,0.4v0.5
									C133.2,298.6,133,298.8,132.8,298.8z"/>
							</g>
						</g>
					</g>
				</g>
			</g>
			<g>
				<g>
					<path class="st48" d="M122.1,299.1h-5.2c-0.2,0-0.3-0.1-0.3-0.3v-0.3c0-0.2,0.1-0.3,0.3-0.3h5.2c0.2,0,0.3,0.1,0.3,0.3v0.3
						C122.3,299,122.2,299.1,122.1,299.1z"/>
				</g>
			</g>
			<g>
				<ellipse class="st49" cx="106.6" cy="298.2" rx="0.5" ry="0.2"/>
			</g>
			<g>
				<ellipse class="st49" cx="132.1" cy="298.2" rx="0.5" ry="0.2"/>
			</g>
		</g>
		<g>
			<path class="st50" d="M112.4,337.5c0,0,6.7,5.4,13.3,0c6.7-5.4,0,48.3,0,48.3h-13.8L112.4,337.5z"/>
		</g>
		<g>
			<path class="st43" d="M98.7,387.9h15.8v-53.1c0,0-1.8-1.2-1.6-4.4s1.6-5.6,1.6-5.6l-17.6,6.9L98.7,387.9z"/>
		</g>
		<g>
			<g>
				<path class="st43" d="M93.6,365.4v-28.5c0-3.1,2.6-5.7,5.7-5.7s5.7,2.6,5.7,5.7v28.5C105,368.5,93.6,368.5,93.6,365.4z"/>
			</g>
		</g>
		<g>
			<path class="st51" d="M103,338.5c0-0.1,0-0.2,0-0.3c0-0.1,0-0.2,0-0.3c0-0.2,0-0.4,0-0.6c0-0.4-0.1-0.8-0.1-1.2
				c-0.1-0.8-0.3-1.6-0.6-2.3c-0.2-0.4-0.3-0.7-0.5-1c-0.2-0.3-0.5-0.6-0.8-0.9c-0.3-0.3-0.6-0.4-1-0.6c-0.2-0.1-0.4-0.1-0.6-0.1
				c-0.2,0-0.4-0.1-0.6-0.1l0,0c-0.1,0-0.1-0.1-0.1-0.1c0-0.1,0-0.1,0.1-0.1c0.2,0,0.4,0,0.6,0c0.2,0,0.4,0.1,0.6,0.1
				c0.4,0.1,0.8,0.3,1.1,0.6c0.3,0.3,0.6,0.6,0.9,0.9c0.3,0.3,0.5,0.7,0.6,1.1c0.4,0.8,0.6,1.6,0.8,2.4c0.1,0.4,0.1,0.8,0.2,1.2
				c0,0.2,0,0.4,0.1,0.6c0,0.1,0,0.2,0,0.3c0,0.1,0,0.2,0,0.3c0,0.2-0.1,0.3-0.3,0.3C103.2,338.8,103,338.7,103,338.5
				C103,338.5,103,338.5,103,338.5L103,338.5z"/>
		</g>
		<g>
			<rect x="103.4" y="337.6" class="st51" width="11.1" height="0.7"/>
		</g>
		<g>
			<path class="st52" d="M124.3,337.9"/>
		</g>
		<g>
			<g>
				<polygon class="st51" points="103.2,339.7 111.2,339.7 111.2,343.6 107.1,345.5 103.2,343.6 				"/>
			</g>
			<g>
				<polygon class="st53" points="103,338.1 111.4,338.1 111.4,340 107,341.9 103,340 				"/>
			</g>
			<g>
				<circle class="st51" cx="107" cy="340.8" r="0.7"/>
			</g>
			<g>
				<rect x="103.7" y="342.6" class="st51" width="0.7" height="45.3"/>
			</g>
			<g>
				<rect x="109.9" y="342.6" class="st51" width="0.7" height="45.3"/>
			</g>
		</g>
		<g>
			<g>
				<path class="st43" d="M134,365.3v-28.4c0-3.1,2.6-5.7,5.7-5.7s5.7,2.6,5.7,5.7v28.4C145.4,368.4,134,368.4,134,365.3z"/>
			</g>
		</g>
		<g>
			<path class="st54" d="M106.9,367.2c0.7,0.5,1.8,1.3,2.6,1.8l9.8,6.9c0.7,0.5,1.3,1.7,1.3,2.6v24c0,0.9-0.6,1.3-1.4,0.8l-19-10.7
				c-0.8-0.4-1.4-1.6-1.3-2.5l1.4-23.9c0.1-0.9,0.8-1.4,1.7-1.1l2.2,0.7C105,366.2,106.3,366.8,106.9,367.2z"/>
		</g>
		<g>
			<path class="st55" d="M105.8,367.7c0.5,0.2,1.4,0.8,2.2,1.3l10.2,7c0.7,0.5,1.4,1.7,1.4,2.6v23.4c0,0.9-0.6,1.3-1.4,0.8l-19.4-11
				c-0.8-0.4-1.4-1.6-1.3-2.5l1.4-23c0.1-0.9,0.8-1.4,1.6-1l3.1,1.4C104.3,367,105.3,367.5,105.8,367.7z"/>
		</g>
		<g>
			<g>
				<path class="st40" d="M98.8,399.8c-2.8,0-5-2.6-5-5.7V365l10,0.1v29C103.8,397.3,101.6,399.8,98.8,399.8z"/>
			</g>
		</g>
		<g>
			<g>
				<path class="st53" d="M104.6,369c-0.3,0-0.6,0-0.8-0.1c-5.1-1.6-8.7-0.1-8.7-0.1c-1.4,0.6-2.2,0-2.8-1.5
					c-0.6-1.5-0.9-3.2,0.5-3.9c0.2-0.1,1.6-0.7,3.8-1c2.9-0.4,6-0.1,8.9,0.9c1.5,0.5,1.5,2.1,1.1,3.7
					C106.1,368.2,105.8,369,104.6,369z"/>
			</g>
		</g>
		<g>
			<path class="st43" d="M140.1,387.9h-15.8v-53.1c0,0,1.8-1.2,1.6-4.4s-1.6-5.6-1.6-5.6l17.6,6.9L140.1,387.9z"/>
		</g>
		<g>
			<polygon class="st51" points="127,339.7 135.1,339.7 135.1,343.6 130.9,345.5 127,343.6 			"/>
		</g>
		<g>
			<path class="st51" d="M134.4,338.5c0-0.1,0-0.2,0-0.3c0-0.1,0-0.2,0-0.3c0-0.2,0-0.4,0.1-0.6c0-0.4,0.1-0.8,0.2-1.2
				c0.2-0.8,0.4-1.6,0.8-2.4c0.2-0.4,0.4-0.7,0.6-1.1c0.2-0.3,0.5-0.6,0.9-0.9c0.3-0.3,0.7-0.5,1.1-0.6c0.2-0.1,0.4-0.1,0.6-0.1
				c0.2,0,0.4,0,0.6,0c0.1,0,0.1,0,0.1,0.1c0,0.1,0,0.1-0.1,0.1l0,0c-0.2,0-0.4,0-0.6,0.1c-0.2,0-0.4,0.1-0.6,0.1
				c-0.4,0.1-0.7,0.3-1,0.6c-0.3,0.2-0.6,0.5-0.8,0.9c-0.2,0.3-0.4,0.7-0.5,1c-0.3,0.7-0.5,1.5-0.6,2.3c-0.1,0.4-0.1,0.8-0.1,1.2
				c0,0.2,0,0.4,0,0.6c0,0.1,0,0.2,0,0.3c0,0.1,0,0.2,0,0.3l0,0c0,0.2-0.1,0.3-0.3,0.4C134.5,338.8,134.4,338.7,134.4,338.5
				C134.4,338.5,134.4,338.5,134.4,338.5z"/>
		</g>
		<g>
			<rect x="124.3" y="337.6" class="st51" width="10.4" height="0.7"/>
		</g>
		<g>
			<polygon class="st53" points="126.8,338.1 135.2,338.1 135.2,340 130.9,341.9 126.8,340 			"/>
		</g>
		<g>
			<circle class="st51" cx="130.9" cy="340.8" r="0.7"/>
		</g>
		<g>
			<circle class="st51" cx="125.6" cy="340.1" r="0.7"/>
		</g>
		<g>
			<circle class="st51" cx="125.6" cy="350.7" r="0.7"/>
		</g>
		<g>
			<circle class="st51" cx="125.6" cy="361.3" r="0.7"/>
		</g>
		<g>
			<circle class="st51" cx="125.6" cy="371.9" r="0.7"/>
		</g>
		<g>
			<circle class="st51" cx="125.6" cy="382.5" r="0.7"/>
		</g>
		<g>
			<rect x="127.5" y="342.6" class="st51" width="0.7" height="45.3"/>
		</g>
		<g>
			<rect x="133.6" y="342.6" class="st51" width="0.7" height="45.3"/>
		</g>
		<g>
			<line class="st51" x1="134" y1="342.6" x2="134" y2="387.9"/>
		</g>
		<g>
			<g>
				<path class="st40" d="M139.7,399.8c-2.8,0-5-2.6-5-5.7V365l10,0.1v29C144.8,397.3,142.5,399.8,139.7,399.8z"/>
			</g>
		</g>
		<g>
			<g>
				<path class="st53" d="M145,369c-0.3,0-0.6,0-0.8-0.1c-5.1-1.6-8.7-0.1-8.7-0.1c-1.4,0.6-2.2,0-2.8-1.5c-0.6-1.5-0.9-3.2,0.5-3.9
					c0.2-0.1,1.6-0.7,3.8-1c2.9-0.4,6-0.1,8.9,0.9c1.5,0.5,1.5,2.1,1.1,3.7C146.6,368.2,146.2,369,145,369z"/>
			</g>
		</g>
		<g>
			<path class="st51" d="M114.5,324.8l-3.5,1.4l-1.4,10.6l4.8-1.9C114.5,334.9,111.8,330.8,114.5,324.8z"/>
		</g>
		<g>
			<path class="st51" d="M124.3,324.8l3.5,1.4l1.4,10.6l-4.8-1.9C124.3,334.9,127,330.8,124.3,324.8z"/>
		</g>
		<g>
			<ellipse class="st6" cx="108.4" cy="383.6" rx="1.5" ry="3.3"/>
		</g>
	</g>
</g>
<path class="st0" d="M220.2,128.6l-23.5,23.5c-1.7,1.7-4.5,1.7-6.2,0L167,128.6c-1.7-1.7-1.7-4.5,0-6.2l23.5-23.5
	c1.7-1.7,4.5-1.7,6.2,0l23.5,23.5C221.9,124.1,221.9,126.9,220.2,128.6z"/>
<path class="st0" d="M477.9,333.9l-23.5,23.5c-1.7,1.7-4.5,1.7-6.2,0l-23.5-23.5c-1.7-1.7-1.7-4.5,0-6.2l23.5-23.5
	c1.7-1.7,4.5-1.7,6.2,0l23.5,23.5C479.6,329.4,479.6,332.2,477.9,333.9z"/>
<path class="st0" d="M372.1,83.6l-11.8,11.8c-0.6,0.6-1.5,0.6-2,0l-11.8-11.8c-0.6-0.6-0.6-1.5,0-2l11.8-11.8c0.6-0.6,1.5-0.6,2,0
	l11.8,11.8C372.6,82.1,372.6,83.1,372.1,83.6z"/>
<path class="st0" d="M160,126.5l-11.8,11.8c-0.6,0.6-1.5,0.6-2,0l-11.8-11.8c-0.6-0.6-0.6-1.5,0-2l11.8-11.8c0.6-0.6,1.5-0.6,2,0
	l11.8,11.8C160.6,125,160.6,125.9,160,126.5z"/>
<path class="st0" d="M151,245.7l-11.8,11.8c-0.6,0.6-1.5,0.6-2,0l-11.8-11.8c-0.6-0.6-0.6-1.5,0-2l11.8-11.8c0.6-0.6,1.5-0.6,2,0
	l11.8,11.8C151.5,244.2,151.5,245.1,151,245.7z"/>
<path class="st0" d="M169.2,263.9l-11.8,11.8c-0.6,0.6-1.5,0.6-2,0l-11.8-11.8c-0.6-0.6-0.6-1.5,0-2l11.8-11.8c0.6-0.6,1.5-0.6,2,0
	l11.8,11.8C169.8,262.5,169.8,263.4,169.2,263.9z"/>
<path class="st0" d="M444.8,300.9l-11.8,11.8c-0.6,0.6-1.5,0.6-2,0l-11.8-11.8c-0.6-0.6-0.6-1.5,0-2l11.8-11.8c0.6-0.6,1.5-0.6,2,0
	l11.8,11.8C445.3,299.4,445.3,300.3,444.8,300.9z"/>
</svg>